<svg width="800" height="450" viewBox="0 0 800 450" xmlns="http://www.w3.org/2000/svg">
  <rect width="800" height="450" fill="#0a0a0a"/>
  <defs>
    <pattern id="grid-ll" width="40" height="40" patternUnits="userSpaceOnUse">
      <path d="M 40 0 L 0 0 0 40" fill="none" stroke="rgba(255,255,255,0.04)" stroke-width="1"/>
    </pattern>
  </defs>
  <rect width="800" height="450" fill="url(#grid-ll)"/>
  <rect x="0" y="0" width="800" height="4" fill="#d4ff00"/>
  <!-- Link icon -->
  <rect x="290" y="195" width="90" height="50" rx="25" fill="none" stroke="#d4ff00" stroke-width="6"/>
  <rect x="420" y="205" width="90" height="50" rx="25" fill="none" stroke="#d4ff00" stroke-width="6"/>
  <line x1="380" y1="220" x2="420" y2="230" stroke="#d4ff00" stroke-width="4" opacity="0.7"/>
  <!-- Bar chart (analytics) -->
  <rect x="300" y="295" width="20" height="40" fill="#d4ff00" opacity="0.5"/>
  <rect x="330" y="280" width="20" height="55" fill="#d4ff00" opacity="0.7"/>
  <rect x="360" y="265" width="20" height="70" fill="#d4ff00"/>
  <rect x="390" y="275" width="20" height="60" fill="#d4ff00" opacity="0.8"/>
  <rect x="420" y="290" width="20" height="45" fill="#d4ff00" opacity="0.5"/>
  <rect x="450" y="285" width="20" height="50" fill="#d4ff00" opacity="0.6"/>
  <line x1="290" y1="335" x2="490" y2="335" stroke="rgba(255,255,255,0.2)" stroke-width="1"/>
  <!-- Label -->
  <text x="400" y="390" font-family="'IBM Plex Mono', monospace" font-size="28" font-weight="700" fill="#ffffff" text-anchor="middle">LINKLYTICS</text>
  <text x="400" y="418" font-family="'IBM Plex Mono', monospace" font-size="12" fill="rgba(255,255,255,0.4)" text-anchor="middle">Link analytics and management platform.</text>
</svg>
